<svg width="80" height="80" viewBox="0 0 80 80" fill="none" xmlns="http://www.w3.org/2000/svg">
<g clip-path="url(#clip0_16_95)">
<rect x="0.149902" y="-0.1492" width="80" height="80" transform="rotate(0.214104 0.149902 -0.1492)" fill="white"/>
<path d="M32.459 51.9719L32.5514 27.2448L37.7793 27.2643L37.7031 47.6811L48.3038 47.7207L48.2877 52.031L32.459 51.9719Z" fill="black"/>
<path d="M72.9344 28.8574L57.3806 28.7992C57.104 26.7859 56.5306 24.9963 55.6605 23.4306C54.7905 21.8411 53.6711 20.4875 52.3021 19.3697C50.9332 18.2519 49.3502 17.3937 47.5532 16.7951C45.7798 16.1966 43.8515 15.8935 41.7682 15.8857C38.004 15.8716 34.7217 16.7945 31.9211 18.6543C29.1207 20.4905 26.9444 23.1812 25.3923 26.7266C23.8403 30.2482 23.0549 34.5304 23.0361 39.573C23.0167 44.7576 23.7698 49.1165 25.2955 52.6497C26.8448 56.183 29.0128 58.8544 31.7997 60.6641C34.5865 62.4738 37.8146 63.3855 41.4841 63.3992C43.5437 63.4069 45.4505 63.1417 47.2044 62.6038C48.982 62.0659 50.5593 61.2787 51.9363 60.2422C53.3134 59.182 54.4546 57.896 55.3598 56.3842C56.2888 54.8725 56.9345 53.1467 57.2968 51.2068L72.8504 51.3359C72.4355 54.6724 71.4173 57.8884 69.7959 60.9836C68.1982 64.0553 66.0454 66.8054 63.3375 69.2337C60.6533 71.6385 57.4501 73.5441 53.728 74.9507C50.0296 76.3337 45.8485 77.0164 41.1847 76.999C34.698 76.9748 28.9033 75.4853 23.8007 72.5306C18.7218 69.576 14.713 65.3115 11.7746 59.737C8.85977 54.1626 7.41715 47.4218 7.44669 39.5147C7.47633 31.5839 8.99301 24.8424 11.9967 19.2901C15.0005 13.7378 19.0646 9.5153 24.189 6.6225C29.3136 3.70602 35.0719 2.25972 41.4639 2.28361C45.6779 2.29935 49.5819 2.9058 53.1759 4.10295C56.7936 5.30019 59.995 7.04039 62.7801 9.32353C65.5652 11.583 67.8276 14.3495 69.5673 17.6231C71.3306 20.8968 72.453 24.6415 72.9344 28.8574Z" fill="black"/>
</g>
<defs>
<clipPath id="clip0_16_95">
<rect width="80" height="80" rx="40" fill="white"/>
</clipPath>
</defs>
</svg>
