<svg width="374" height="80" viewBox="0 0 374 80" fill="none" xmlns="http://www.w3.org/2000/svg">
<rect width="374" height="80" fill="white"/>
<path d="M42.6661 55V25.9091H48.8167V49.929H61.2883V55H42.6661ZM71.4694 55.4119C70.0773 55.4119 68.8368 55.1705 67.7478 54.6875C66.6588 54.1951 65.797 53.4706 65.1626 52.5142C64.5376 51.5483 64.2251 50.3456 64.2251 48.9062C64.2251 47.6941 64.4476 46.6761 64.8927 45.8523C65.3377 45.0284 65.9438 44.3655 66.7108 43.8636C67.4779 43.3617 68.3491 42.983 69.3245 42.7273C70.3093 42.4716 71.3415 42.2917 72.4211 42.1875C73.69 42.0549 74.7127 41.9318 75.4893 41.8182C76.2658 41.6951 76.8292 41.5152 77.1796 41.2784C77.53 41.0417 77.7052 40.6913 77.7052 40.2273V40.142C77.7052 39.2424 77.4211 38.5464 76.8529 38.054C76.2942 37.5616 75.4987 37.3153 74.4665 37.3153C73.3775 37.3153 72.511 37.5568 71.8671 38.0398C71.2232 38.5133 70.797 39.1098 70.5887 39.8295L64.9921 39.375C65.2762 38.0492 65.8349 36.9034 66.6682 35.9375C67.5016 34.9621 68.5764 34.214 69.8927 33.6932C71.2184 33.1629 72.7525 32.8977 74.4949 32.8977C75.7071 32.8977 76.8671 33.0398 77.9751 33.3239C79.0925 33.608 80.0821 34.0483 80.9438 34.6449C81.815 35.2415 82.5016 36.0085 83.0035 36.946C83.5054 37.8741 83.7563 38.9867 83.7563 40.2841V55H78.0177V51.9744H77.8472C77.4968 52.6562 77.0281 53.2576 76.441 53.7784C75.8538 54.2898 75.1483 54.6922 74.3245 54.9858C73.5006 55.2699 72.5489 55.4119 71.4694 55.4119ZM73.2023 51.2358C74.0925 51.2358 74.8785 51.0606 75.5603 50.7102C76.2421 50.3504 76.7771 49.8674 77.1654 49.2614C77.5537 48.6553 77.7478 47.9687 77.7478 47.2017V44.8864C77.5584 45.0095 77.298 45.1231 76.9665 45.2273C76.6446 45.322 76.28 45.4119 75.8728 45.4972C75.4656 45.5729 75.0584 45.6439 74.6512 45.7102C74.244 45.767 73.8747 45.8191 73.5432 45.8665C72.833 45.9706 72.2127 46.1364 71.6824 46.3636C71.1521 46.5909 70.7402 46.8987 70.4466 47.2869C70.1531 47.6657 70.0063 48.1392 70.0063 48.7074C70.0063 49.5312 70.3046 50.161 70.9012 50.5966C71.5073 51.0227 72.2743 51.2358 73.2023 51.2358ZM91.4055 63.1818C90.6384 63.1818 89.9187 63.1203 89.2464 62.9972C88.5835 62.8835 88.0342 62.7367 87.5986 62.5568L88.9623 58.0398C89.6725 58.2576 90.3117 58.3759 90.8799 58.3949C91.4575 58.4138 91.9547 58.2813 92.3714 57.9972C92.7975 57.7131 93.1431 57.2301 93.4083 56.5483L93.7634 55.625L85.9367 33.1818H92.3003L96.8174 49.2045H97.0447L101.604 33.1818H108.011L99.5305 57.358C99.1233 58.5322 98.5693 59.5549 97.8685 60.4261C97.1772 61.3068 96.3013 61.9839 95.2407 62.4574C94.1801 62.9403 92.9017 63.1818 91.4055 63.1818ZM120.347 55.4261C118.103 55.4261 116.171 54.9716 114.552 54.0625C112.942 53.1439 111.701 51.8466 110.83 50.1705C109.959 48.4848 109.523 46.4915 109.523 44.1903C109.523 41.946 109.959 39.9763 110.83 38.2812C111.701 36.5862 112.928 35.2652 114.509 34.3182C116.1 33.3712 117.966 32.8977 120.106 32.8977C121.545 32.8977 122.885 33.1297 124.126 33.5938C125.376 34.0483 126.465 34.7348 127.393 35.6534C128.33 36.572 129.059 37.7273 129.58 39.1193C130.101 40.5019 130.361 42.1212 130.361 43.9773V45.6392H111.938V41.8892H124.665C124.665 41.018 124.476 40.2462 124.097 39.5739C123.718 38.9015 123.193 38.3759 122.521 37.9972C121.858 37.6089 121.086 37.4148 120.205 37.4148C119.287 37.4148 118.472 37.6278 117.762 38.054C117.061 38.4706 116.512 39.0341 116.114 39.7443C115.717 40.4451 115.513 41.2263 115.503 42.0881V45.6534C115.503 46.733 115.702 47.6657 116.1 48.4517C116.507 49.2377 117.08 49.8438 117.819 50.2699C118.557 50.696 119.433 50.9091 120.447 50.9091C121.119 50.9091 121.735 50.8144 122.293 50.625C122.852 50.4356 123.33 50.1515 123.728 49.7727C124.126 49.3939 124.429 48.9299 124.637 48.3807L130.234 48.75C129.949 50.0947 129.367 51.2689 128.486 52.2727C127.615 53.267 126.488 54.0436 125.106 54.6023C123.733 55.1515 122.146 55.4261 120.347 55.4261ZM134.31 55V33.1818H140.177V36.9886H140.404C140.802 35.6345 141.469 34.6117 142.407 33.9205C143.344 33.2197 144.424 32.8693 145.646 32.8693C145.949 32.8693 146.275 32.8883 146.626 32.9261C146.976 32.964 147.284 33.0161 147.549 33.0824V38.4517C147.265 38.3665 146.872 38.2907 146.37 38.2244C145.868 38.1581 145.409 38.125 144.992 38.125C144.102 38.125 143.306 38.3191 142.606 38.7074C141.914 39.0862 141.365 39.6165 140.958 40.2983C140.56 40.9801 140.361 41.7661 140.361 42.6562V55H134.31ZM180.413 38H177.418C177.241 37.1387 176.931 36.3821 176.489 35.7301C176.054 35.0781 175.523 34.5308 174.895 34.0881C174.275 33.6373 173.587 33.2992 172.83 33.0739C172.074 32.8485 171.285 32.7358 170.464 32.7358C168.967 32.7358 167.61 33.1141 166.395 33.8707C165.187 34.6274 164.226 35.7422 163.509 37.2152C162.801 38.6882 162.447 40.4953 162.447 42.6364C162.447 44.7775 162.801 46.5845 163.509 48.0575C164.226 49.5305 165.187 50.6454 166.395 51.402C167.61 52.1586 168.967 52.5369 170.464 52.5369C171.285 52.5369 172.074 52.4242 172.83 52.1989C173.587 51.9735 174.275 51.6394 174.895 51.1967C175.523 50.746 176.054 50.1946 176.489 49.5426C176.931 48.8826 177.241 48.1259 177.418 47.2727H180.413C180.187 48.5365 179.777 49.6674 179.181 50.6655C178.585 51.6636 177.845 52.5128 176.959 53.2131C176.074 53.9053 175.08 54.4325 173.977 54.7947C172.882 55.157 171.711 55.3381 170.464 55.3381C168.355 55.3381 166.479 54.8229 164.837 53.7926C163.195 52.7623 161.903 51.2973 160.962 49.3977C160.02 47.4981 159.549 45.2443 159.549 42.6364C159.549 40.0284 160.02 37.7746 160.962 35.875C161.903 33.9754 163.195 32.5104 164.837 31.4801C166.479 30.4498 168.355 29.9347 170.464 29.9347C171.711 29.9347 172.882 30.1158 173.977 30.478C175.08 30.8402 176.074 31.3714 176.959 32.0717C177.845 32.764 178.585 33.6091 179.181 34.6072C179.777 35.5973 180.187 36.7282 180.413 38ZM192.399 55.3864C190.725 55.3864 189.256 54.9879 187.992 54.1911C186.736 53.3942 185.754 52.2794 185.046 50.8466C184.346 49.4138 183.995 47.7396 183.995 45.8239C183.995 43.892 184.346 42.2057 185.046 40.7649C185.754 39.3241 186.736 38.2053 187.992 37.4084C189.256 36.6115 190.725 36.2131 192.399 36.2131C194.073 36.2131 195.538 36.6115 196.794 37.4084C198.057 38.2053 199.04 39.3241 199.74 40.7649C200.448 42.2057 200.802 43.892 200.802 45.8239C200.802 47.7396 200.448 49.4138 199.74 50.8466C199.04 52.2794 198.057 53.3942 196.794 54.1911C195.538 54.9879 194.073 55.3864 192.399 55.3864ZM192.399 52.8267C193.671 52.8267 194.717 52.5007 195.538 51.8487C196.359 51.1967 196.967 50.3395 197.361 49.277C197.756 48.2145 197.953 47.0634 197.953 45.8239C197.953 44.5843 197.756 43.4292 197.361 42.3587C196.967 41.2881 196.359 40.4228 195.538 39.7628C194.717 39.1027 193.671 38.7727 192.399 38.7727C191.127 38.7727 190.081 39.1027 189.26 39.7628C188.439 40.4228 187.831 41.2881 187.437 42.3587C187.042 43.4292 186.845 44.5843 186.845 45.8239C186.845 47.0634 187.042 48.2145 187.437 49.277C187.831 50.3395 188.439 51.1967 189.26 51.8487C190.081 52.5007 191.127 52.8267 192.399 52.8267ZM205.152 55V36.4545H207.905V39.3523H208.146C208.533 38.3622 209.156 37.5935 210.018 37.0462C210.879 36.4908 211.913 36.2131 213.121 36.2131C214.344 36.2131 215.362 36.4908 216.175 37.0462C216.996 37.5935 217.636 38.3622 218.095 39.3523H218.288C218.763 38.3944 219.476 37.6338 220.425 37.0703C221.375 36.4988 222.514 36.2131 223.842 36.2131C225.5 36.2131 226.857 36.7322 227.911 37.7706C228.966 38.8009 229.493 40.4067 229.493 42.5881V55H226.643V42.5881C226.643 41.2197 226.269 40.2417 225.521 39.6541C224.772 39.0665 223.891 38.7727 222.876 38.7727C221.572 38.7727 220.562 39.1671 219.846 39.956C219.129 40.7367 218.771 41.7268 218.771 42.9261V55H215.873V42.2983C215.873 41.2438 215.531 40.3946 214.847 39.7507C214.163 39.0987 213.282 38.7727 212.203 38.7727C211.463 38.7727 210.77 38.9699 210.126 39.3643C209.49 39.7588 208.975 40.3061 208.581 41.0064C208.195 41.6986 208.001 42.4995 208.001 43.4091V55H205.152ZM234.703 61.9545V36.4545H237.456V39.4006H237.794C238.003 39.0786 238.293 38.6681 238.663 38.169C239.041 37.6619 239.581 37.2112 240.281 36.8168C240.989 36.4143 241.947 36.2131 243.154 36.2131C244.716 36.2131 246.092 36.6035 247.284 37.3842C248.475 38.165 249.405 39.2718 250.073 40.7045C250.741 42.1373 251.075 43.8277 251.075 45.7756C251.075 47.7396 250.741 49.442 250.073 50.8828C249.405 52.3156 248.479 53.4264 247.296 54.2152C246.112 54.996 244.748 55.3864 243.203 55.3864C242.011 55.3864 241.058 55.1892 240.341 54.7947C239.625 54.3923 239.073 53.9375 238.687 53.4304C238.301 52.9152 238.003 52.4886 237.794 52.1506H237.552V61.9545H234.703ZM237.504 45.7273C237.504 47.1278 237.709 48.3634 238.12 49.4339C238.53 50.4964 239.13 51.3295 239.919 51.9332C240.707 52.5289 241.673 52.8267 242.816 52.8267C244.008 52.8267 245.002 52.5128 245.799 51.8849C246.603 51.2491 247.207 50.3958 247.61 49.3253C248.02 48.2467 248.225 47.0473 248.225 45.7273C248.225 44.4233 248.024 43.2481 247.622 42.2017C247.227 41.1473 246.628 40.3142 245.823 39.7024C245.026 39.0826 244.024 38.7727 242.816 38.7727C241.657 38.7727 240.683 39.0665 239.894 39.6541C239.106 40.2337 238.51 41.0466 238.108 42.093C237.705 43.1314 237.504 44.3428 237.504 45.7273ZM262.956 55.3864C261.281 55.3864 259.812 54.9879 258.549 54.1911C257.293 53.3942 256.311 52.2794 255.603 50.8466C254.902 49.4138 254.552 47.7396 254.552 45.8239C254.552 43.892 254.902 42.2057 255.603 40.7649C256.311 39.3241 257.293 38.2053 258.549 37.4084C259.812 36.6115 261.281 36.2131 262.956 36.2131C264.63 36.2131 266.095 36.6115 267.35 37.4084C268.614 38.2053 269.596 39.3241 270.296 40.7649C271.005 42.2057 271.359 43.892 271.359 45.8239C271.359 47.7396 271.005 49.4138 270.296 50.8466C269.596 52.2794 268.614 53.3942 267.35 54.1911C266.095 54.9879 264.63 55.3864 262.956 55.3864ZM262.956 52.8267C264.227 52.8267 265.274 52.5007 266.095 51.8487C266.916 51.1967 267.523 50.3395 267.918 49.277C268.312 48.2145 268.51 47.0634 268.51 45.8239C268.51 44.5843 268.312 43.4292 267.918 42.3587C267.523 41.2881 266.916 40.4228 266.095 39.7628C265.274 39.1027 264.227 38.7727 262.956 38.7727C261.684 38.7727 260.637 39.1027 259.816 39.7628C258.995 40.4228 258.388 41.2881 257.993 42.3587C257.599 43.4292 257.402 44.5843 257.402 45.8239C257.402 47.0634 257.599 48.2145 257.993 49.277C258.388 50.3395 258.995 51.1967 259.816 51.8487C260.637 52.5007 261.684 52.8267 262.956 52.8267ZM287.396 47.4176V36.4545H290.245V55H287.396V51.8608H287.203C286.768 52.8026 286.092 53.6035 285.174 54.2635C284.257 54.9155 283.098 55.2415 281.697 55.2415C280.538 55.2415 279.508 54.9879 278.606 54.4808C277.705 53.9657 276.996 53.1929 276.481 52.1626C275.966 51.1243 275.709 49.8163 275.709 48.2386V36.4545H278.558V48.0455C278.558 49.3977 278.936 50.4763 279.693 51.2812C280.458 52.0862 281.432 52.4886 282.615 52.4886C283.323 52.4886 284.044 52.3075 284.776 51.9453C285.517 51.5831 286.136 51.0277 286.635 50.2791C287.142 49.5305 287.396 48.5767 287.396 47.4176ZM298.314 43.8438V55H295.464V36.4545H298.217V39.3523H298.459C298.893 38.4105 299.553 37.6539 300.439 37.0824C301.324 36.5028 302.467 36.2131 303.868 36.2131C305.123 36.2131 306.222 36.4706 307.164 36.9858C308.106 37.4929 308.838 38.2656 309.361 39.304C309.885 40.3343 310.146 41.6383 310.146 43.2159V55H307.297V43.4091C307.297 41.9522 306.918 40.8172 306.162 40.0043C305.405 39.1832 304.367 38.7727 303.047 38.7727C302.137 38.7727 301.324 38.9699 300.608 39.3643C299.9 39.7588 299.34 40.3343 298.93 41.0909C298.519 41.8475 298.314 42.7652 298.314 43.8438ZM322.356 55.3864C320.81 55.3864 319.446 54.996 318.263 54.2152C317.08 53.4264 316.154 52.3156 315.486 50.8828C314.818 49.442 314.484 47.7396 314.484 45.7756C314.484 43.8277 314.818 42.1373 315.486 40.7045C316.154 39.2718 317.084 38.165 318.275 37.3842C319.466 36.6035 320.843 36.2131 322.404 36.2131C323.612 36.2131 324.565 36.4143 325.266 36.8168C325.974 37.2112 326.513 37.6619 326.884 38.169C327.262 38.6681 327.556 39.0786 327.765 39.4006H328.006V30.2727H330.856V55H328.103V52.1506H327.765C327.556 52.4886 327.258 52.9152 326.872 53.4304C326.485 53.9375 325.934 54.3923 325.217 54.7947C324.501 55.1892 323.547 55.3864 322.356 55.3864ZM322.742 52.8267C323.885 52.8267 324.851 52.5289 325.64 51.9332C326.429 51.3295 327.028 50.4964 327.439 49.4339C327.85 48.3634 328.055 47.1278 328.055 45.7273C328.055 44.3428 327.854 43.1314 327.451 42.093C327.049 41.0466 326.453 40.2337 325.664 39.6541C324.875 39.0665 323.901 38.7727 322.742 38.7727C321.535 38.7727 320.529 39.0826 319.724 39.7024C318.927 40.3142 318.327 41.1473 317.925 42.2017C317.53 43.2481 317.333 44.4233 317.333 45.7273C317.333 47.0473 317.534 48.2467 317.937 49.3253C318.347 50.3958 318.951 51.2491 319.748 51.8849C320.553 52.5128 321.551 52.8267 322.742 52.8267Z" fill="black"/>
</svg>
