<svg width="80" height="80" viewBox="0 0 80 80" fill="none" xmlns="http://www.w3.org/2000/svg">
<rect width="80" height="80" fill="white"/>
<path d="M32.5036 52V27.2727H37.7316V47.6896H48.3325V52H32.5036Z" fill="black"/>
<path d="M72.8924 28.7344H57.3384C57.0543 26.7221 56.4743 24.9347 55.5984 23.3722C54.7224 21.786 53.5979 20.4366 52.2248 19.3239C50.8517 18.2112 49.2655 17.3589 47.4663 16.767C45.6907 16.1752 43.7612 15.8793 41.6779 15.8793C37.9137 15.8793 34.6348 16.8144 31.8413 18.6847C29.0477 20.5312 26.8815 23.2301 25.3427 26.7812C23.8039 30.3087 23.0344 34.5937 23.0344 39.6364C23.0344 44.821 23.8039 49.1771 25.3427 52.7045C26.9052 56.232 29.0832 58.8954 31.8768 60.6946C34.6703 62.4938 37.9019 63.3935 41.5714 63.3935C43.631 63.3935 45.5368 63.1212 47.2887 62.5767C49.0643 62.0322 50.6386 61.2391 52.0117 60.1974C53.3848 59.1321 54.5212 57.8419 55.4208 56.3267C56.3441 54.8116 56.9833 53.0833 57.3384 51.142L72.8924 51.2131C72.4899 54.5511 71.4838 57.7708 69.8739 60.8722C68.2878 63.9498 66.1452 66.7079 63.4464 69.1463C60.7712 71.5611 57.5752 73.4787 53.8583 74.8991C50.1651 76.2959 45.9866 76.9943 41.3228 76.9943C34.8361 76.9943 29.0359 75.5265 23.9222 72.5909C18.8323 69.6553 14.8076 65.4058 11.8484 59.8423C8.91276 54.2789 7.44496 47.5436 7.44496 39.6364C7.44496 31.7055 8.93643 24.9583 11.9194 19.3949C14.9023 13.8314 18.9506 9.59375 24.0643 6.68182C29.1779 3.74621 34.9308 2.27841 41.3228 2.27841C45.5368 2.27841 49.4431 2.87026 53.0415 4.05398C56.6637 5.23769 59.8716 6.96591 62.6651 9.23863C65.4587 11.4877 67.7314 14.2457 69.4833 17.5128C71.2589 20.7798 72.3952 24.5204 72.8924 28.7344Z" fill="black"/>
</svg>
